<?xml version="1.0" encoding="UTF-8"?>
<svg xmlns="http://www.w3.org/2000/svg" xmlns:xlink="http://www.w3.org/1999/xlink" viewBox="0 0 391.97 134.58">
  <defs>
    <style>
      .cls-1 {
        fill: url(#radial-gradient-10);
      }

      .cls-2 {
        mask: url(#mask-5);
      }

      .cls-3 {
        mask: url(#mask-13);
      }

      .cls-4 {
        mask: url(#mask-1);
      }

      .cls-5 {
        filter: url(#luminosity-invert-3);
      }

      .cls-6 {
        fill: url(#radial-gradient-9);
      }

      .cls-7 {
        mask: url(#mask-10);
      }

      .cls-8 {
        mask: url(#mask-6);
      }

      .cls-9 {
        mask: url(#mask-7);
      }

      .cls-10 {
        fill: url(#radial-gradient-14);
      }

      .cls-11 {
        filter: url(#luminosity-invert-12);
      }

      .cls-12, .cls-13 {
        fill: #fff;
      }

      .cls-14 {
        mask: url(#mask);
      }

      .cls-15 {
        fill: url(#radial-gradient-16);
      }

      .cls-16 {
        filter: url(#luminosity-invert-14);
      }

      .cls-17 {
        fill: url(#radial-gradient-18);
      }

      .cls-18 {
        fill: url(#radial-gradient-5);
      }

      .cls-19 {
        filter: url(#luminosity-invert-6);
      }

      .cls-20 {
        fill: url(#radial-gradient);
      }

      .cls-21 {
        mask: url(#mask-8);
      }

      .cls-22 {
        fill: url(#radial-gradient-3);
      }

      .cls-23 {
        mask: url(#mask-2);
      }

      .cls-24 {
        filter: url(#luminosity-invert-15);
      }

      .cls-25 {
        mask: url(#mask-9);
      }

      .cls-26 {
        filter: url(#luminosity-invert-13);
      }

      .cls-27 {
        fill: url(#radial-gradient-20);
      }

      .cls-28 {
        filter: url(#luminosity-invert-4);
      }

      .cls-29 {
        isolation: isolate;
      }

      .cls-30 {
        fill: url(#radial-gradient-11);
      }

      .cls-31 {
        filter: url(#luminosity-invert-9);
      }

      .cls-32 {
        filter: url(#luminosity-invert-7);
      }

      .cls-33 {
        filter: url(#luminosity-invert-10);
      }

      .cls-34 {
        fill: url(#radial-gradient-8);
      }

      .cls-35 {
        fill: url(#radial-gradient-2);
      }

      .cls-36 {
        fill: url(#radial-gradient-23);
      }

      .cls-37 {
        fill: url(#radial-gradient-21);
      }

      .cls-38 {
        fill: #333;
      }

      .cls-39 {
        fill: url(#radial-gradient-4);
      }

      .cls-40 {
        fill: url(#radial-gradient-22);
      }

      .cls-41 {
        filter: url(#luminosity-invert-11);
      }

      .cls-42 {
        fill: url(#radial-gradient-12);
      }

      .cls-43 {
        fill: url(#radial-gradient-19);
      }

      .cls-44 {
        fill: #ed1e79;
      }

      .cls-45 {
        mask: url(#mask-11);
      }

      .cls-46 {
        fill: url(#radial-gradient-15);
      }

      .cls-47 {
        mask: url(#mask-12);
      }

      .cls-48 {
        filter: url(#luminosity-invert-8);
      }

      .cls-49 {
        fill: url(#radial-gradient-6);
      }

      .cls-50 {
        mask: url(#mask-4);
      }

      .cls-51 {
        filter: url(#luminosity-invert-2);
      }

      .cls-52 {
        fill: url(#radial-gradient-7);
      }

      .cls-13 {
        mix-blend-mode: soft-light;
      }

      .cls-53 {
        fill: url(#radial-gradient-17);
      }

      .cls-54 {
        filter: url(#luminosity-invert);
      }

      .cls-55 {
        mask: url(#mask-14);
      }

      .cls-56 {
        fill: url(#radial-gradient-13);
      }

      .cls-57 {
        filter: url(#luminosity-invert-5);
      }

      .cls-58 {
        mask: url(#mask-3);
      }
    </style>
    <radialGradient id="radial-gradient" cx="76.95" cy="68" fx="76.95" fy="68" r="68.74" gradientUnits="userSpaceOnUse">
      <stop offset="0" stop-color="#fcee21"/>
      <stop offset=".07" stop-color="#fadc21"/>
      <stop offset=".2" stop-color="#f7ad22"/>
      <stop offset=".39" stop-color="#f16323"/>
      <stop offset=".41" stop-color="#f15a24"/>
      <stop offset=".84" stop-color="#9e005d"/>
    </radialGradient>
    <radialGradient id="radial-gradient-2" cy="-294.66" fy="-294.66" r="68.74" gradientTransform="translate(0 -225.54) scale(1 -1)" xlink:href="#radial-gradient"/>
    <filter id="luminosity-invert" x="30.39" y="27.13" width="17.55" height="17.55" color-interpolation-filters="sRGB" filterUnits="userSpaceOnUse">
      <feColorMatrix result="cm" values="-1 0 0 0 1 0 -1 0 0 1 0 0 -1 0 1 0 0 0 1 0"/>
    </filter>
    <radialGradient id="radial-gradient-3" cx="-1399.98" cy="-705.67" fx="-1399.98" fy="-705.67" r="8.77" gradientTransform="translate(-1360.96 -669.76) rotate(-180)" gradientUnits="userSpaceOnUse">
      <stop offset="0" stop-color="#000"/>
      <stop offset=".13" stop-color="#3c3c3c"/>
      <stop offset=".27" stop-color="#777"/>
      <stop offset=".41" stop-color="#a7a7a7"/>
      <stop offset=".54" stop-color="#cdcdcd"/>
      <stop offset=".66" stop-color="#e8e8e8"/>
      <stop offset=".77" stop-color="#f9f9f9"/>
      <stop offset=".85" stop-color="#fff"/>
    </radialGradient>
    <mask id="mask" x="30.39" y="27.13" width="17.55" height="17.55" maskUnits="userSpaceOnUse">
      <g class="cls-54">
        <path class="cls-22" d="M30.39,35.91c0-4.85,3.93-8.78,8.78-8.78s8.77,3.93,8.77,8.78-3.93,8.77-8.77,8.77-8.78-3.93-8.78-8.77Z"/>
      </g>
    </mask>
    <filter id="luminosity-invert-2" x="105.79" y="27.13" width="17.55" height="17.55" color-interpolation-filters="sRGB" filterUnits="userSpaceOnUse">
      <feColorMatrix result="cm" values="-1 0 0 0 1 0 -1 0 0 1 0 0 -1 0 1 0 0 0 1 0"/>
    </filter>
    <radialGradient id="radial-gradient-4" cx="-1475.38" fx="-1475.38" r="8.78" xlink:href="#radial-gradient-3"/>
    <mask id="mask-1" x="105.79" y="27.13" width="17.55" height="17.55" maskUnits="userSpaceOnUse">
      <g class="cls-51">
        <path class="cls-39" d="M105.79,35.91c0-4.85,3.93-8.78,8.78-8.78s8.78,3.93,8.78,8.78-3.93,8.77-8.78,8.77-8.78-3.93-8.78-8.77Z"/>
      </g>
    </mask>
    <radialGradient id="radial-gradient-5" cx="309.29" cy="-816.74" fx="309.29" fy="-816.74" r="43.82" gradientTransform="translate(-719.41 446.15) rotate(45)" gradientUnits="userSpaceOnUse">
      <stop offset="0" stop-color="#fcee21"/>
      <stop offset=".16" stop-color="#fadc21"/>
      <stop offset=".49" stop-color="#f7ad22"/>
      <stop offset=".95" stop-color="#f16323"/>
      <stop offset="1" stop-color="#f15a24"/>
    </radialGradient>
    <radialGradient id="radial-gradient-6" cx="309.27" cy="-816.63" fx="309.27" fy="-816.63" r="43.49" xlink:href="#radial-gradient-5"/>
    <radialGradient id="radial-gradient-7" cx="76.83" cy="85.23" fx="76.83" fy="85.23" r="37.94" gradientUnits="userSpaceOnUse">
      <stop offset="0" stop-color="#fcee21"/>
      <stop offset=".08" stop-color="#fadc21"/>
      <stop offset=".24" stop-color="#f7ad22"/>
      <stop offset=".47" stop-color="#f16323"/>
      <stop offset=".5" stop-color="#f15a24"/>
      <stop offset=".98" stop-color="#9e005d"/>
    </radialGradient>
    <radialGradient id="radial-gradient-8" cx="-920.73" cy="725.88" fx="-920.73" fy="725.88" r="37.94" gradientTransform="translate(-620.69 -853.33) rotate(-90)" xlink:href="#radial-gradient-7"/>
    <radialGradient id="radial-gradient-9" cx="-559.86" cy="-1005.48" fx="-559.86" fy="-1005.48" r="37.94" gradientTransform="translate(-956.14 626.33) rotate(90)" xlink:href="#radial-gradient-7"/>
    <radialGradient id="radial-gradient-10" cx="-1595.82" cy="-314.1" fx="-1595.82" fy="-314.1" r="37.94" gradientTransform="translate(-1518.04 -264.75) rotate(-180)" xlink:href="#radial-gradient-7"/>
    <filter id="luminosity-invert-3" x="0" y="57.31" width="17.55" height="17.55" color-interpolation-filters="sRGB" filterUnits="userSpaceOnUse">
      <feColorMatrix result="cm" values="-1 0 0 0 1 0 -1 0 0 1 0 0 -1 0 1 0 0 0 1 0"/>
    </filter>
    <radialGradient id="radial-gradient-11" cx="-1369.6" cy="-735.84" fx="-1369.6" fy="-735.84" r="8.77" xlink:href="#radial-gradient-3"/>
    <mask id="mask-2" x="0" y="57.31" width="17.55" height="17.55" maskUnits="userSpaceOnUse">
      <g class="cls-5">
        <path class="cls-30" d="M0,66.09c0-4.85,3.93-8.78,8.77-8.78s8.78,3.93,8.78,8.78-3.93,8.77-8.78,8.77-8.77-3.93-8.77-8.77Z"/>
      </g>
    </mask>
    <filter id="luminosity-invert-4" x="49.61" y="67.42" width="23.67" height="23.67" color-interpolation-filters="sRGB" filterUnits="userSpaceOnUse">
      <feColorMatrix result="cm" values="-1 0 0 0 1 0 -1 0 0 1 0 0 -1 0 1 0 0 0 1 0"/>
    </filter>
    <radialGradient id="radial-gradient-12" cx="-1422.26" cy="-749.01" fx="-1422.26" fy="-749.01" r="11.83" xlink:href="#radial-gradient-3"/>
    <mask id="mask-3" x="49.61" y="67.42" width="23.67" height="23.67" maskUnits="userSpaceOnUse">
      <g class="cls-28">
        <path class="cls-42" d="M49.61,79.25c0-6.54,5.3-11.84,11.83-11.84s11.84,5.3,11.84,11.84-5.3,11.84-11.84,11.84-11.83-5.3-11.83-11.84Z"/>
      </g>
    </mask>
    <filter id="luminosity-invert-5" x="48.28" y="45" width="26.32" height="26.32" color-interpolation-filters="sRGB" filterUnits="userSpaceOnUse">
      <feColorMatrix result="cm" values="-1 0 0 0 1 0 -1 0 0 1 0 0 -1 0 1 0 0 0 1 0"/>
    </filter>
    <radialGradient id="radial-gradient-13" cx="-1422.26" cy="-727.92" fx="-1422.26" fy="-727.92" r="13.16" xlink:href="#radial-gradient-3"/>
    <mask id="mask-4" x="48.28" y="45" width="26.32" height="26.32" maskUnits="userSpaceOnUse">
      <g class="cls-57">
        <path class="cls-56" d="M48.28,58.16c0-7.27,5.89-13.16,13.16-13.16s13.17,5.89,13.17,13.16-5.89,13.16-13.17,13.16-13.16-5.89-13.16-13.16Z"/>
      </g>
    </mask>
    <filter id="luminosity-invert-6" x="78.03" y="45" width="27.17" height="27.18" color-interpolation-filters="sRGB" filterUnits="userSpaceOnUse">
      <feColorMatrix result="cm" values="-1 0 0 0 1 0 -1 0 0 1 0 0 -1 0 1 0 0 0 1 0"/>
    </filter>
    <radialGradient id="radial-gradient-14" cx="-1452.43" cy="-728.34" fx="-1452.43" fy="-728.34" r="13.59" xlink:href="#radial-gradient-3"/>
    <mask id="mask-5" x="78.03" y="45" width="27.17" height="27.18" maskUnits="userSpaceOnUse">
      <g class="cls-19">
        <path class="cls-10" d="M78.03,58.59c0-7.51,6.08-13.59,13.58-13.59s13.59,6.08,13.59,13.59-6.09,13.59-13.59,13.59-13.58-6.08-13.58-13.59Z"/>
      </g>
    </mask>
    <filter id="luminosity-invert-7" x="79.81" y="66.68" width="23.6" height="23.6" color-interpolation-filters="sRGB" filterUnits="userSpaceOnUse">
      <feColorMatrix result="cm" values="-1 0 0 0 1 0 -1 0 0 1 0 0 -1 0 1 0 0 0 1 0"/>
    </filter>
    <radialGradient id="radial-gradient-15" cx="-1452.43" cy="-748.24" fx="-1452.43" fy="-748.24" r="11.8" xlink:href="#radial-gradient-3"/>
    <mask id="mask-6" x="79.81" y="66.68" width="23.6" height="23.6" maskUnits="userSpaceOnUse">
      <g class="cls-32">
        <path class="cls-46" d="M79.81,78.49c0-6.52,5.28-11.8,11.8-11.8s11.8,5.28,11.8,11.8-5.28,11.8-11.8,11.8-11.8-5.28-11.8-11.8Z"/>
      </g>
    </mask>
    <filter id="luminosity-invert-8" x="67.9" y="81.25" width="17.55" height="17.55" color-interpolation-filters="sRGB" filterUnits="userSpaceOnUse">
      <feColorMatrix result="cm" values="-1 0 0 0 1 0 -1 0 0 1 0 0 -1 0 1 0 0 0 1 0"/>
    </filter>
    <radialGradient id="radial-gradient-16" cx="-1437.49" cy="-759.78" fx="-1437.49" fy="-759.78" r="8.77" xlink:href="#radial-gradient-3"/>
    <mask id="mask-7" x="67.9" y="81.25" width="17.55" height="17.55" maskUnits="userSpaceOnUse">
      <g class="cls-48">
        <path class="cls-15" d="M67.9,90.03c0-4.85,3.93-8.78,8.77-8.78s8.77,3.93,8.77,8.78-3.93,8.77-8.77,8.77-8.77-3.93-8.77-8.77Z"/>
      </g>
    </mask>
    <filter id="luminosity-invert-9" x="68.53" y="36.96" width="17.55" height="17.55" color-interpolation-filters="sRGB" filterUnits="userSpaceOnUse">
      <feColorMatrix result="cm" values="-1 0 0 0 1 0 -1 0 0 1 0 0 -1 0 1 0 0 0 1 0"/>
    </filter>
    <radialGradient id="radial-gradient-17" cx="-1438.12" cy="-715.5" fx="-1438.12" fy="-715.5" r="8.77" xlink:href="#radial-gradient-3"/>
    <mask id="mask-8" x="68.53" y="36.96" width="17.55" height="17.55" maskUnits="userSpaceOnUse">
      <g class="cls-31">
        <path class="cls-53" d="M68.53,45.74c0-4.85,3.93-8.78,8.77-8.78s8.77,3.93,8.77,8.78-3.93,8.77-8.77,8.77-8.77-3.93-8.77-8.77Z"/>
      </g>
    </mask>
    <filter id="luminosity-invert-10" x="136.99" y="58.16" width="17.55" height="17.55" color-interpolation-filters="sRGB" filterUnits="userSpaceOnUse">
      <feColorMatrix result="cm" values="-1 0 0 0 1 0 -1 0 0 1 0 0 -1 0 1 0 0 0 1 0"/>
    </filter>
    <radialGradient id="radial-gradient-18" cx="-1506.57" cy="-736.69" fx="-1506.57" fy="-736.69" r="8.78" xlink:href="#radial-gradient-3"/>
    <mask id="mask-9" x="136.99" y="58.16" width="17.55" height="17.55" maskUnits="userSpaceOnUse">
      <g class="cls-33">
        <path class="cls-17" d="M136.99,66.93c0-4.85,3.93-8.78,8.77-8.78s8.78,3.93,8.78,8.78-3.93,8.78-8.78,8.78-8.77-3.93-8.77-8.78Z"/>
      </g>
    </mask>
    <filter id="luminosity-invert-11" x="105.05" y="58.16" width="17.55" height="17.55" color-interpolation-filters="sRGB" filterUnits="userSpaceOnUse">
      <feColorMatrix result="cm" values="-1 0 0 0 1 0 -1 0 0 1 0 0 -1 0 1 0 0 0 1 0"/>
    </filter>
    <radialGradient id="radial-gradient-19" cx="-1474.64" cy="-736.69" fx="-1474.64" fy="-736.69" r="8.78" xlink:href="#radial-gradient-3"/>
    <mask id="mask-10" x="105.05" y="58.16" width="17.55" height="17.55" maskUnits="userSpaceOnUse">
      <g class="cls-41">
        <path class="cls-43" d="M105.05,66.93c0-4.85,3.93-8.78,8.78-8.78s8.78,3.93,8.78,8.78-3.93,8.78-8.78,8.78-8.78-3.93-8.78-8.78Z"/>
      </g>
    </mask>
    <filter id="luminosity-invert-12" x="31.29" y="58.16" width="17.55" height="17.55" color-interpolation-filters="sRGB" filterUnits="userSpaceOnUse">
      <feColorMatrix result="cm" values="-1 0 0 0 1 0 -1 0 0 1 0 0 -1 0 1 0 0 0 1 0"/>
    </filter>
    <radialGradient id="radial-gradient-20" cx="-1400.89" cy="-736.69" fx="-1400.89" fy="-736.69" r="8.78" xlink:href="#radial-gradient-3"/>
    <mask id="mask-11" x="31.29" y="58.16" width="17.55" height="17.55" maskUnits="userSpaceOnUse">
      <g class="cls-11">
        <path class="cls-27" d="M31.29,66.93c0-4.85,3.93-8.78,8.77-8.78s8.78,3.93,8.78,8.78-3.93,8.78-8.78,8.78-8.77-3.93-8.77-8.78Z"/>
      </g>
    </mask>
    <filter id="luminosity-invert-13" x="30.39" y="92.15" width="17.55" height="17.55" color-interpolation-filters="sRGB" filterUnits="userSpaceOnUse">
      <feColorMatrix result="cm" values="-1 0 0 0 1 0 -1 0 0 1 0 0 -1 0 1 0 0 0 1 0"/>
    </filter>
    <radialGradient id="radial-gradient-21" cy="-770.68" fy="-770.68" r="8.77" xlink:href="#radial-gradient-3"/>
    <mask id="mask-12" x="30.39" y="92.15" width="17.55" height="17.55" maskUnits="userSpaceOnUse">
      <g class="cls-26">
        <path class="cls-37" d="M30.39,100.92c0-4.85,3.93-8.78,8.78-8.78s8.77,3.93,8.77,8.78-3.93,8.78-8.77,8.78-8.78-3.93-8.78-8.78Z"/>
      </g>
    </mask>
    <filter id="luminosity-invert-14" x="105.79" y="92.15" width="17.55" height="17.55" color-interpolation-filters="sRGB" filterUnits="userSpaceOnUse">
      <feColorMatrix result="cm" values="-1 0 0 0 1 0 -1 0 0 1 0 0 -1 0 1 0 0 0 1 0"/>
    </filter>
    <radialGradient id="radial-gradient-22" cx="-1475.38" cy="-770.68" fx="-1475.38" fy="-770.68" r="8.78" xlink:href="#radial-gradient-3"/>
    <mask id="mask-13" x="105.79" y="92.15" width="17.55" height="17.55" maskUnits="userSpaceOnUse">
      <g class="cls-16">
        <path class="cls-40" d="M105.79,100.92c0-4.85,3.93-8.78,8.78-8.78s8.78,3.93,8.78,8.78-3.93,8.78-8.78,8.78-8.78-3.93-8.78-8.78Z"/>
      </g>
    </mask>
    <filter id="luminosity-invert-15" x="68.53" y="0" width="17.55" height="17.55" color-interpolation-filters="sRGB" filterUnits="userSpaceOnUse">
      <feColorMatrix result="cm" values="-1 0 0 0 1 0 -1 0 0 1 0 0 -1 0 1 0 0 0 1 0"/>
    </filter>
    <radialGradient id="radial-gradient-23" cx="-1438.12" cy="-678.53" fx="-1438.12" fy="-678.53" r="8.77" xlink:href="#radial-gradient-3"/>
    <mask id="mask-14" x="68.53" y="0" width="17.55" height="17.55" maskUnits="userSpaceOnUse">
      <g class="cls-24">
        <path class="cls-36" d="M68.53,8.78c0-4.85,3.93-8.78,8.77-8.78s8.77,3.93,8.77,8.78-3.93,8.77-8.77,8.77-8.77-3.93-8.77-8.77Z"/>
      </g>
    </mask>
  </defs>
  <g class="cls-29">
    <g id="Layer_2" data-name="Layer 2">
      <g id="Layer_1-2" data-name="Layer 1">
        <g id="BioLab">
          <g>
            <path class="cls-20" d="M120.64,29.6c-3.76-3.76-9.85-3.76-13.61,0-3.07,3.08-2.04,9.16-2.04,9.16.21,1.2-.33,2.9-1.2,3.76l-5.23,5.23c-.69.69-1.89,1.16-2.96,1.23-.27.02-.54.01-.79-.03,0,0-4.41-.74-7.62.94-.56.29-1.09.65-1.54,1.11-.44.44-.83.92-1.17,1.42-.41.48-.64.8-.64.8-.71,1-2.28,1.81-3.5,1.81h-7.39c-1.22,0-2.8-.81-3.51-1.81,0,0-.12-.17-.34-.44-.39-.63-.85-1.23-1.39-1.78-.52-.52-1.13-.91-1.77-1.22-3.18-1.53-7.4-.82-7.4-.82-.27.05-.56.05-.86.03-1.06-.08-2.23-.55-2.9-1.22l-5.23-5.23c-.86-.86-1.4-2.56-1.2-3.76,0,0,1.03-6.09-2.04-9.16-3.76-3.76-9.85-3.76-13.61,0-3.76,3.76-3.76,9.85,0,13.61,3.07,3.07,9.16,2.04,9.16,2.04,1.21-.2,2.89.34,3.76,1.2l5.22,5.23c.87.86,1.41,2.55,1.2,3.76,0,0-.16.97-.17,2.33v.04s0,.02,0,.04c.02,5.19,4.16,9.41,9.32,9.56.1,0,.2.02.3.02.84,0,1.66-.19,2.42-.5,1.38-.46,2.68-1.22,3.77-2.32.54-.54,1-1.14,1.39-1.77.22-.27.34-.44.34-.44.71-1,2.29-1.81,3.51-1.81h7.39c1.22,0,2.8.82,3.5,1.81,0,0,.23.32.64.8.34.5.73.98,1.17,1.42,1,1,2.18,1.73,3.42,2.2.85.37,1.75.62,2.7.62.11,0,.22-.02.33-.02,2.58.09,5.18-.83,7.15-2.8,3.07-3.07,2.04-9.16,2.04-9.16-.21-1.21.34-2.9,1.2-3.76l5.23-5.23c.87-.86,2.55-1.4,3.76-1.2,0,0,6.09,1.03,9.16-2.04,3.76-3.76,3.76-9.85,0-13.61Z"/>
            <path class="cls-35" d="M120.64,107.52c-3.76,3.76-9.85,3.75-13.61,0-3.07-3.08-2.04-9.16-2.04-9.16.21-1.2-.33-2.9-1.2-3.76l-5.23-5.22c-.69-.69-1.89-1.16-2.96-1.23-.27-.02-.54-.01-.79.03,0,0-4.41.74-7.62-.94-.56-.29-1.09-.65-1.54-1.11-.44-.44-.83-.92-1.17-1.42-.41-.48-.64-.8-.64-.8-.71-.99-2.28-1.81-3.5-1.81h-7.39c-1.22,0-2.8.82-3.51,1.81,0,0-.12.17-.34.44-.39.63-.85,1.23-1.39,1.78-.52.52-1.13.91-1.77,1.22-3.18,1.53-7.4.83-7.4.83-.27-.05-.56-.05-.86-.02-1.06.08-2.23.55-2.9,1.22l-5.23,5.22c-.86.87-1.4,2.56-1.2,3.76,0,0,1.03,6.09-2.04,9.16-3.76,3.75-9.85,3.76-13.61,0-3.76-3.76-3.76-9.85,0-13.61,3.07-3.08,9.16-2.04,9.16-2.04,1.21.2,2.89-.34,3.76-1.2l5.22-5.22c.87-.86,1.41-2.55,1.2-3.76,0,0-.16-.97-.17-2.33v-.03s0-.03,0-.04c.02-5.19,4.16-9.41,9.32-9.56.1,0,.2-.02.3-.02.84,0,1.66.19,2.42.5,1.38.46,2.68,1.22,3.77,2.32.54.54,1,1.14,1.39,1.77.22.27.34.44.34.44.71.99,2.29,1.81,3.51,1.81h7.39c1.22,0,2.8-.82,3.5-1.81,0,0,.23-.32.64-.8.34-.5.73-.98,1.17-1.42,1-1,2.18-1.73,3.42-2.2.85-.37,1.75-.62,2.7-.62.11,0,.22.01.33.02,2.58-.09,5.18.83,7.15,2.8,3.07,3.07,2.04,9.16,2.04,9.16-.21,1.21.34,2.9,1.2,3.76l5.23,5.22c.87.86,2.55,1.4,3.76,1.2,0,0,6.09-1.03,9.16,2.04,3.76,3.76,3.76,9.85,0,13.61Z"/>
            <g class="cls-14">
              <path class="cls-13" d="M30.39,35.91c0-4.85,3.93-8.78,8.78-8.78s8.77,3.93,8.77,8.78-3.93,8.77-8.77,8.77-8.78-3.93-8.78-8.77Z"/>
            </g>
            <g class="cls-4">
              <path class="cls-13" d="M105.79,35.91c0-4.85,3.93-8.78,8.78-8.78s8.78,3.93,8.78,8.78-3.93,8.77-8.78,8.77-8.78-3.93-8.78-8.77Z"/>
            </g>
            <path class="cls-18" d="M81.38,93.24c.4-.06.8-.12,1.21-.12-.41.02-.82.06-1.21.12Z"/>
            <path class="cls-49" d="M73.35,101.97c.01-.18.03-.37.05-.55-.02.18-.04.36-.05.55Z"/>
            <path class="cls-12" d="M82.79,93.1c-.07,0-.13.02-.2.02.08,0,.16-.02.25-.02-.02,0-.03,0-.05,0Z"/>
            <path class="cls-12" d="M73.58,100.43c-.08.32-.13.65-.18.99.05-.32.1-.63.17-.94,0-.02,0-.03.01-.06Z"/>
            <path class="cls-12" d="M81.38,93.24c-.26.04-.52.08-.77.14.03,0,.05,0,.08,0,.23-.06.46-.09.69-.13Z"/>
            <path class="cls-52" d="M81.89,117.04c-.99-.71-1.81-2.29-1.81-3.51v-7.39c0-.83.39-1.8.94-2.57.26-.37.55-.7.87-.93,0,0,.8-.57,1.76-1.53,0,0,.02-.02.03-.02,0-.01.02-.02.03-.03,2.97-2.99,3.52-7.42,1.75-11.01-1.62-2.93-4.68-4.93-8.23-4.95-.08,0-.16.01-.24.02-.41.01-.82.06-1.21.12-.23.04-.47.07-.7.13-.03,0-.05,0-.08,0-3.46.83-6.17,3.56-7.03,7.05,0,.02,0,.04,0,.06-.07.31-.13.62-.17.93-.02.18-.04.36-.06.55-.02.25-.05.5-.05.76,0,.73.15,1.44.39,2.12,1.17,3.33,4.65,5.81,4.65,5.81.22.16.43.36.63.59.12.14.24.31.35.48.5.75.83,1.65.84,2.43v7.39c0,1.22-.81,2.8-1.81,3.51,0,0-5.03,3.58-5.04,7.92,0,5.32,4.31,9.62,9.62,9.62s9.62-4.31,9.62-9.62c0-4.35-5.04-7.92-5.04-7.92Z"/>
            <path class="cls-34" d="M136.99,62.35c-.71.99-2.28,1.81-3.5,1.81h-7.39c-.83,0-1.8-.39-2.58-.94-.36-.26-.7-.55-.93-.87,0,0-.58-.8-1.53-1.76,0,0-.02-.02-.02-.02,0-.01-.02-.02-.03-.03-2.99-2.97-7.42-3.52-11.01-1.75-2.93,1.62-4.93,4.68-4.95,8.23,0,.08.01.16.02.24,0,.41.06.81.13,1.21.04.23.07.47.13.7,0,.03,0,.04,0,.07.83,3.46,3.56,6.17,7.04,7.03.02,0,.04,0,.06,0,.31.08.62.13.94.17.18.03.36.04.55.05.25.02.5.05.75.05.73,0,1.44-.15,2.12-.39,3.33-1.17,5.81-4.65,5.81-4.65.16-.22.36-.43.6-.63.14-.12.31-.24.48-.35.75-.5,1.65-.83,2.43-.83h7.39c1.22,0,2.8.81,3.5,1.81,0,0,3.58,5.03,7.92,5.03,5.31,0,9.62-4.31,9.62-9.62s-4.31-9.62-9.62-9.62c-4.35,0-7.93,5.04-7.93,5.04Z"/>
            <path class="cls-6" d="M17.54,71.52c.71-.99,2.29-1.81,3.51-1.81h7.39c.83,0,1.8.39,2.58.94.37.26.7.55.93.87,0,0,.58.8,1.53,1.76,0,0,.02.02.02.03.01.01.02.02.03.03,2.99,2.97,7.43,3.52,11.01,1.75,2.93-1.62,4.93-4.68,4.95-8.23,0-.08-.01-.17-.01-.25,0-.42-.06-.82-.12-1.21-.04-.23-.07-.47-.13-.7,0-.03,0-.05-.01-.08-.82-3.46-3.56-6.17-7.05-7.03-.02,0-.03,0-.06,0-.31-.07-.62-.12-.93-.17-.18-.02-.36-.04-.55-.05-.25-.02-.5-.05-.75-.05-.73,0-1.44.15-2.11.39-3.33,1.17-5.81,4.65-5.81,4.65-.15.22-.36.43-.59.63-.15.13-.31.24-.48.35-.75.5-1.66.84-2.43.84h-7.39c-1.22,0-2.8-.81-3.51-1.81,0,0-3.57-5.03-7.92-5.04-5.31,0-9.62,4.31-9.62,9.62s4.31,9.62,9.62,9.62c4.35,0,7.92-5.04,7.92-5.04Z"/>
            <path class="cls-1" d="M72.72,17.54c1,.71,1.81,2.28,1.81,3.51v7.39c0,.83-.39,1.8-.94,2.57-.26.37-.55.71-.87.93,0,0-.8.57-1.76,1.53,0,0-.02.01-.02.02,0,0-.02.02-.02.03-2.97,2.99-3.52,7.43-1.75,11.01,1.62,2.93,4.68,4.93,8.23,4.95.08,0,.16-.01.25-.02.41,0,.82-.06,1.21-.12.23-.04.47-.07.69-.13.03,0,.05,0,.08,0,3.46-.83,6.17-3.56,7.03-7.05,0-.02,0-.03,0-.06.07-.31.12-.62.17-.93.03-.18.04-.36.06-.55.02-.25.05-.5.05-.75,0-.73-.15-1.44-.39-2.11-1.17-3.33-4.65-5.81-4.65-5.81-.22-.16-.43-.36-.63-.59-.13-.14-.24-.31-.35-.48-.5-.75-.84-1.66-.84-2.43v-7.39c0-1.22.81-2.8,1.81-3.51,0,0,5.03-3.58,5.03-7.92,0-5.31-4.3-9.62-9.62-9.62s-9.62,4.31-9.62,9.62c0,4.35,5.04,7.92,5.04,7.92Z"/>
            <g class="cls-23">
              <path class="cls-13" d="M0,66.09c0-4.85,3.93-8.78,8.77-8.78s8.78,3.93,8.78,8.78-3.93,8.77-8.78,8.77-8.77-3.93-8.77-8.77Z"/>
            </g>
            <g class="cls-58">
              <path class="cls-13" d="M49.61,79.25c0-6.54,5.3-11.84,11.83-11.84s11.84,5.3,11.84,11.84-5.3,11.84-11.84,11.84-11.83-5.3-11.83-11.84Z"/>
            </g>
            <g class="cls-50">
              <path class="cls-13" d="M48.28,58.16c0-7.27,5.89-13.16,13.16-13.16s13.17,5.89,13.17,13.16-5.89,13.16-13.17,13.16-13.16-5.89-13.16-13.16Z"/>
            </g>
            <g class="cls-2">
              <path class="cls-13" d="M78.03,58.59c0-7.51,6.08-13.59,13.58-13.59s13.59,6.08,13.59,13.59-6.09,13.59-13.59,13.59-13.58-6.08-13.58-13.59Z"/>
            </g>
            <g class="cls-8">
              <path class="cls-13" d="M79.81,78.49c0-6.52,5.28-11.8,11.8-11.8s11.8,5.28,11.8,11.8-5.28,11.8-11.8,11.8-11.8-5.28-11.8-11.8Z"/>
            </g>
            <g class="cls-9">
              <path class="cls-13" d="M67.9,90.03c0-4.85,3.93-8.78,8.77-8.78s8.77,3.93,8.77,8.78-3.93,8.77-8.77,8.77-8.77-3.93-8.77-8.77Z"/>
            </g>
            <g class="cls-21">
              <path class="cls-13" d="M68.53,45.74c0-4.85,3.93-8.78,8.77-8.78s8.77,3.93,8.77,8.78-3.93,8.77-8.77,8.77-8.77-3.93-8.77-8.77Z"/>
            </g>
            <g class="cls-25">
              <path class="cls-13" d="M136.99,66.93c0-4.85,3.93-8.78,8.77-8.78s8.78,3.93,8.78,8.78-3.93,8.78-8.78,8.78-8.77-3.93-8.77-8.78Z"/>
            </g>
            <g class="cls-7">
              <path class="cls-13" d="M105.05,66.93c0-4.85,3.93-8.78,8.78-8.78s8.78,3.93,8.78,8.78-3.93,8.78-8.78,8.78-8.78-3.93-8.78-8.78Z"/>
            </g>
            <g class="cls-45">
              <path class="cls-13" d="M31.29,66.93c0-4.85,3.93-8.78,8.77-8.78s8.78,3.93,8.78,8.78-3.93,8.78-8.78,8.78-8.77-3.93-8.77-8.78Z"/>
            </g>
            <g class="cls-47">
              <path class="cls-13" d="M30.39,100.92c0-4.85,3.93-8.78,8.78-8.78s8.77,3.93,8.77,8.78-3.93,8.78-8.77,8.78-8.78-3.93-8.78-8.78Z"/>
            </g>
            <g class="cls-3">
              <path class="cls-13" d="M105.79,100.92c0-4.85,3.93-8.78,8.78-8.78s8.78,3.93,8.78,8.78-3.93,8.78-8.78,8.78-8.78-3.93-8.78-8.78Z"/>
            </g>
            <g class="cls-55">
              <path class="cls-13" d="M68.53,8.78c0-4.85,3.93-8.78,8.77-8.78s8.77,3.93,8.77,8.78-3.93,8.77-8.77,8.77-8.77-3.93-8.77-8.77Z"/>
            </g>
          </g>
          <g>
            <g>
              <path class="cls-38" d="M207.3,57.53c3.92,1.13,5.63,3.59,5.63,6.84,0,4.51-3.25,7.72-11.14,7.72h-24.99v-28.54h24.41c10.31,0,10.97,5.42,10.97,7.55,0,3.59-1.96,5.51-4.88,6.43ZM201.59,54.94c3.25,0,4.8-1.04,4.8-3,0-1.84-1.33-3.13-4.38-3.13h-19.44v6.13h19.03ZM182.56,60.03v6.72h19.86c3.5,0,4.63-1.59,4.63-3.17s-1.13-3.55-5.05-3.55h-19.44Z"/>
              <path class="cls-38" d="M224.66,43.55v28.54h-5.97v-28.54h5.97Z"/>
              <path class="cls-38" d="M270.39,57.82c0,11.06-6.43,14.69-20.03,14.69s-20.03-3.63-20.03-14.69,6.43-14.69,20.03-14.69,20.03,3.63,20.03,14.69ZM264.3,57.82c0-7.97-4.59-9.05-13.94-9.05s-13.94,1.09-13.94,9.05,4.59,9.05,13.94,9.05,13.94-1.08,13.94-9.05Z"/>
              <path class="cls-38" d="M281.74,43.55v16.73c0,4.67,1.79,5.97,7.8,5.97h19.03v5.84h-19.03c-9.43,0-13.77-3.25-13.77-11.81v-16.73h5.97Z"/>
              <path class="cls-38" d="M351.46,72.09h-6.43l-3.63-7.05h-21.03l-3.63,7.05h-6.38l11.68-22.91c1.79-3.55,3.96-6.05,8.85-6.05s7.01,2.5,8.84,6.05l11.72,22.91ZM333.85,50.4c-.63-1.21-1.42-1.96-2.96-1.96s-2.34.75-2.96,1.96l-4.84,9.34h15.56l-4.8-9.34Z"/>
              <path class="cls-38" d="M386.34,57.53c3.92,1.13,5.63,3.59,5.63,6.84,0,4.51-3.25,7.72-11.14,7.72h-24.99v-28.54h24.41c10.31,0,10.97,5.42,10.97,7.55,0,3.59-1.96,5.51-4.88,6.43ZM380.62,54.94c3.26,0,4.8-1.04,4.8-3,0-1.84-1.33-3.13-4.38-3.13h-19.44v6.13h19.03ZM361.6,60.03v6.72h19.86c3.5,0,4.63-1.59,4.63-3.17s-1.13-3.55-5.05-3.55h-19.44Z"/>
            </g>
            <g>
              <path class="cls-44" d="M184.26,82.78l2.84,3.22c.31.36.71.78.96,1.27.24-.5.64-.91.96-1.27l2.84-3.22h2l-4.06,4.33c-.34.36-1.05,1.07-1.05,1.67v2.54h-1.37v-2.54c0-.59-.71-1.32-1.05-1.67l-4.06-4.33h2Z"/>
              <path class="cls-44" d="M207.12,87.05c0,3.41-2.02,4.4-5.93,4.4s-5.93-.99-5.93-4.4,2.02-4.38,5.93-4.38,5.93.99,5.93,4.38ZM205.71,87.05c0-2.66-1.56-3.09-4.52-3.09s-4.52.42-4.52,3.09,1.56,3.08,4.52,3.08,4.52-.41,4.52-3.08Z"/>
              <path class="cls-44" d="M210.16,82.78h1.37v4.46c0,2.25.84,2.86,3.85,2.86s3.85-.61,3.85-2.86v-4.46h1.39v4.46c0,3.06-1.41,4.21-5.23,4.21s-5.22-1.12-5.22-4.21v-4.46Z"/>
              <path class="cls-44" d="M224.09,82.78h7.37c2.09,0,3.24,1.02,3.24,2.61,0,1.22-.69,2-1.84,2.3,1.11.33,1.62,1.06,1.62,2v1.64h-1.42v-1.66c0-.69-.44-1.35-1.65-1.35h-5.95v3.01h-1.37v-8.54ZM231.56,87.09c1.3,0,1.72-.85,1.72-1.55s-.41-1.54-1.72-1.54h-6.1v3.09h6.1Z"/>
              <path class="cls-44" d="M246.18,91.32v-7.3h-4.41v-1.25h10.19v1.25h-4.41v7.3h-1.37Z"/>
              <path class="cls-44" d="M264.53,91.32h-1.47l-1.16-2.32h-6.68l-1.16,2.32h-1.47l3.43-6.87c.55-1.11,1.21-1.79,2.54-1.79s1.99.67,2.55,1.79l3.44,6.87ZM259.75,84.74c-.26-.52-.59-.85-1.2-.85s-.92.32-1.19.85l-1.52,3.04h5.42l-1.51-3.04Z"/>
              <path class="cls-44" d="M277.29,86.86v4.46h-6.76c-2.97,0-4.06-1.45-4.06-4.28s1.09-4.26,4.06-4.26h6.66v1.34h-6.66c-2.17,0-2.66,1-2.66,2.92s.49,2.93,2.66,2.93h5.38v-3.11h1.37Z"/>
              <path class="cls-44" d="M281.91,82.78v5.1c0,1.57.7,2.1,2.69,2.1h5.63v1.35h-5.63c-2.79,0-4.06-.99-4.06-3.45v-5.1h1.37Z"/>
              <path class="cls-44" d="M294.31,82.78v8.54h-1.37v-8.54h1.37Z"/>
              <path class="cls-44" d="M299.29,91.32h-1.39v-8.54h1.05c2.17,0,2.77.74,5.07,3.86,2.17,2.96,2.42,3.3,3.55,3.3h.06v-7.16h1.39v8.54h-1.05c-2.04,0-2.65-.69-5.05-3.85-2.31-3.02-2.49-3.3-3.57-3.3h-.06v7.15Z"/>
              <path class="cls-44" d="M316.28,84.09c-1.9,0-2.57.8-2.67,2.35h9.23v1.24h-9.23c.1,1.54.77,2.32,2.67,2.32h6.73v1.32h-6.73c-2.97,0-4.07-1.44-4.07-4.27s1.1-4.27,4.07-4.27h6.73v1.31h-6.73Z"/>
              <path class="cls-44" d="M340.59,91.32v-3.66h-7.75v3.66h-1.39v-8.54h1.39v3.65h7.75v-3.65h1.37v8.54h-1.37Z"/>
              <path class="cls-44" d="M349.23,84.09c-1.9,0-2.57.8-2.67,2.35h9.23v1.24h-9.23c.1,1.54.77,2.32,2.67,2.32h6.73v1.32h-6.73c-2.97,0-4.07-1.44-4.07-4.27s1.1-4.27,4.07-4.27h6.73v1.31h-6.73Z"/>
              <path class="cls-44" d="M359.22,82.78h7.37c2.09,0,3.24,1.02,3.24,2.61,0,1.22-.69,2-1.84,2.3,1.11.33,1.62,1.06,1.62,2v1.64h-1.42v-1.66c0-.69-.44-1.35-1.65-1.35h-5.95v3.01h-1.37v-8.54ZM366.69,87.09c1.3,0,1.72-.85,1.72-1.55s-.41-1.54-1.72-1.54h-6.1v3.09h6.1Z"/>
              <path class="cls-44" d="M376.7,84.09c-1.9,0-2.57.8-2.67,2.35h9.23v1.24h-9.23c.1,1.54.77,2.32,2.67,2.32h6.73v1.32h-6.73c-2.97,0-4.07-1.44-4.07-4.27s1.1-4.27,4.07-4.27h6.73v1.31h-6.73Z"/>
            </g>
          </g>
        </g>
      </g>
    </g>
  </g>
</svg>